<svg width="20" height="20" viewBox="0 0 20 20" fill="none" xmlns="http://www.w3.org/2000/svg">
<path fill-rule="evenodd" clip-rule="evenodd" d="M16.4778 18.879C16.3396 18.7945 13.0868 15.0087 12.1135 13.8188L12.0971 13.797C11.0057 14.5554 9.67969 15 8.24988 15C4.52195 15 1.49988 11.9779 1.49988 8.25C1.49988 4.52208 4.52195 1.5 8.24988 1.5C11.9778 1.5 14.9999 4.52208 14.9999 8.25C14.9999 9.67618 14.5576 10.999 13.8027 12.0889L13.8246 12.105C14.9947 13.0679 18.8078 16.3411 18.8878 16.4647C19.0527 16.7193 19.0336 17.2319 18.8439 17.6465C18.3948 18.6275 17.1374 19.2825 16.4778 18.879ZM8.24988 13C10.8732 13 12.9999 10.8734 12.9999 8.25C12.9999 5.62665 10.8732 3.5 8.24988 3.5C5.62652 3.5 3.49988 5.62665 3.49988 8.25C3.49988 10.8734 5.62652 13 8.24988 13ZM8.49988 5C7.94759 5 7.49988 5.44772 7.49988 6C7.49988 6.55229 7.94759 7 8.49988 7C8.9348 7 9.30733 7.27823 9.44424 7.66945C9.62668 8.19074 10.1972 8.46542 10.7184 8.28299C11.2397 8.10055 11.5144 7.53007 11.332 7.00879C10.9231 5.84038 9.8109 5 8.49988 5Z" fill="#8695A6"/>
</svg>
