<svg width="16" height="16" viewBox="0 0 16 16" fill="none" xmlns="http://www.w3.org/2000/svg">
<path fill-rule="evenodd" clip-rule="evenodd" d="M10 6.50001C10 8.433 8.433 10 6.5 10C4.56701 10 3 8.433 3 6.50001C3 4.56701 4.567 3.00001 6.5 3.00001C8.433 3.00001 10 4.56701 10 6.50001ZM9.62961 11.0234C8.74126 11.6392 7.66277 12 6.5 12C3.46244 12 1 9.53757 1 6.50001C1 3.46244 3.46243 1.00001 6.5 1.00001C9.53757 1.00001 12 3.46244 12 6.50001C12 7.65998 11.6409 8.73608 11.0278 9.6232C12.1145 10.5279 14.8497 12.8782 14.9103 12.9718C15.0423 13.1755 15.027 13.5855 14.8752 13.9172C14.5159 14.702 13.51 15.226 12.9824 14.9032C12.8777 14.8392 10.5387 12.1201 9.62961 11.0234Z" fill="#8695A6"/>
</svg>
