<svg width="20" height="20" viewBox="0 0 20 20" fill="none" xmlns="http://www.w3.org/2000/svg">
<g clip-path="url(#clip0_1_984)">
<path fill-rule="evenodd" clip-rule="evenodd" d="M1.49989 12.7991C1.49978 12.0465 1.50025 11.0632 1.5024 9.99407L1.50806 7.19798C1.5106 5.93993 2.18813 4.78003 3.28271 4.15986L5.76551 2.75316L8.28058 1.32819C9.3509 0.721779 10.661 0.721792 11.7313 1.32822L16.7264 4.15843C17.8231 4.77984 18.501 5.94303 18.501 7.2036L18.501 12.7964C18.501 14.057 17.8231 15.2202 16.7264 15.8416L14.2464 17.2467L11.731 18.6719C10.6609 19.2783 9.35108 19.2784 8.28086 18.6723L5.7826 17.2575C5.25254 16.9573 4.74443 16.6702 4.28235 16.4096C3.91717 16.2036 3.58077 16.0141 3.28503 15.8477C2.18471 15.2284 1.50009 14.0651 1.49989 12.7991ZM3.5024 9.9981C3.50025 11.0655 3.49978 12.0473 3.49989 12.7987C3.49998 13.339 3.79205 13.838 4.26589 14.1047C4.37322 14.1651 4.4859 14.2285 4.60336 14.2947L13.9908 4.9072L10.7454 3.06832C10.2867 2.80842 9.72519 2.80841 9.26648 3.0683L4.26862 5.89997C3.79952 6.16576 3.50914 6.66286 3.50805 7.20202L3.5024 9.9981ZM15.7953 5.93116L6.4113 15.3152C6.52894 15.3817 6.64799 15.4491 6.76817 15.5172L9.26643 16.932C9.7251 17.1917 10.2864 17.1917 10.7451 16.9318L15.7405 14.1015C16.2105 13.8352 16.501 13.3367 16.501 12.7964L16.501 7.2036C16.501 6.68469 16.233 6.20429 15.7953 5.93116Z" fill="currentColor"/>
</g>
<defs>
<clipPath id="clip0_1_984">
<rect width="20" height="20" fill="white" transform="translate(19.9999 20) rotate(180)"/>
</clipPath>
</defs>
</svg>
