<svg width="16" height="16" viewBox="0 0 16 16" fill="none" xmlns="http://www.w3.org/2000/svg">
<g clip-path="url(#clip0_253_295)">
<path fill-rule="evenodd" clip-rule="evenodd" d="M1.00001 10.2396C0.999918 9.63753 1.0003 8.85081 1.00202 7.99536L1.00654 5.75865C1.00872 4.68037 1.58943 3.68622 2.52759 3.15468L4.51369 2.0294L6.52559 0.88951C7.44296 0.369756 8.56584 0.369768 9.48319 0.889539L13.479 3.15353C14.419 3.68615 15 4.68311 15 5.76354L15 10.2375C15 11.3179 14.419 12.3149 13.479 12.8475L11.4952 13.9715L9.48295 15.1116C8.56577 15.6313 7.44313 15.6314 6.52585 15.1119L4.52739 13.9801C4.10349 13.7401 3.69713 13.5105 3.32758 13.302C3.03552 13.1373 2.76648 12.9857 2.52996 12.8526C1.5871 12.322 1.00018 11.3249 1.00001 10.2396ZM3.00202 7.99939C3.0003 8.85305 2.99992 9.63826 3.00001 10.2393C3.00007 10.5989 3.19444 10.9316 3.51082 11.1097C3.55558 11.1348 3.60151 11.1607 3.64854 11.1872L10.8647 3.97102L8.49726 2.62964C8.19151 2.4564 7.81725 2.45639 7.51149 2.62962L3.5135 4.89479C3.20082 5.07195 3.00727 5.4033 3.00654 5.76269L3.00202 7.99939C3.00202 7.99939 3.00202 7.99939 3.00202 7.99939ZM12.6556 5.00851L5.45637 12.2078C5.4752 12.2184 5.49406 12.2291 5.51296 12.2398L7.51142 13.3716C7.81715 13.5447 8.19133 13.5447 8.49702 13.3715L10.5092 12.2314L12.493 11.1074C12.8064 10.9299 13 10.5976 13 10.2375L13 5.76355C13 5.47072 12.8719 5.19628 12.6556 5.00851Z" fill="#8695A6"/>
</g>
<defs>
<clipPath id="clip0_253_295">
<rect width="16" height="16" fill="white"/>
</clipPath>
</defs>
</svg>
